<mxfile host="app.diagrams.net" agent="Mozilla/5.0 (Windows NT 10.0; Win64; x64; rv:136.0) Gecko/20100101 Firefox/136.0" version="26.1.1">
  <diagram name="Page-1" id="tzbTPv_mo_dzIEEhzvNw">
    <mxGraphModel dx="1050" dy="557" grid="1" gridSize="10" guides="1" tooltips="1" connect="1" arrows="1" fold="1" page="1" pageScale="1" pageWidth="850" pageHeight="1100" math="0" shadow="0">
      <root>
        <mxCell id="0" />
        <mxCell id="1" parent="0" />
        <mxCell id="KzALQ_EzHr8WOCT2dRUy-1" value="&lt;font style=&quot;font-size: 24px;&quot;&gt;High Level Architecture&lt;/font&gt;" style="text;strokeColor=none;align=center;fillColor=none;html=1;verticalAlign=middle;whiteSpace=wrap;rounded=0;" parent="1" vertex="1">
          <mxGeometry x="30" y="20" width="310" height="30" as="geometry" />
        </mxCell>
        <mxCell id="KzALQ_EzHr8WOCT2dRUy-2" value="" style="rounded=0;whiteSpace=wrap;html=1;fillColor=none;strokeColor=default;dashed=1;" parent="1" vertex="1">
          <mxGeometry x="60" y="80" width="120" height="380" as="geometry" />
        </mxCell>
        <mxCell id="KzALQ_EzHr8WOCT2dRUy-3" value="Sources" style="rounded=0;whiteSpace=wrap;html=1;strokeColor=none;fillColor=none;" parent="1" vertex="1">
          <mxGeometry x="60" y="80" width="120" height="60" as="geometry" />
        </mxCell>
        <mxCell id="KzALQ_EzHr8WOCT2dRUy-4" value="" style="rounded=0;whiteSpace=wrap;html=1;fillColor=none;strokeColor=default;dashed=1;" parent="1" vertex="1">
          <mxGeometry x="240" y="80" width="440" height="440" as="geometry" />
        </mxCell>
        <mxCell id="KzALQ_EzHr8WOCT2dRUy-5" value="Data WAREHOUSE" style="rounded=0;whiteSpace=wrap;html=1;strokeColor=none;fillColor=none;" parent="1" vertex="1">
          <mxGeometry x="240" y="80" width="440" height="60" as="geometry" />
        </mxCell>
        <mxCell id="KzALQ_EzHr8WOCT2dRUy-6" value="" style="rounded=0;whiteSpace=wrap;html=1;fillColor=none;strokeColor=default;dashed=1;" parent="1" vertex="1">
          <mxGeometry x="720" y="80" width="120" height="380" as="geometry" />
        </mxCell>
        <mxCell id="KzALQ_EzHr8WOCT2dRUy-7" value="Consume" style="rounded=0;whiteSpace=wrap;html=1;strokeColor=none;fillColor=none;" parent="1" vertex="1">
          <mxGeometry x="720" y="80" width="120" height="60" as="geometry" />
        </mxCell>
        <mxCell id="KzALQ_EzHr8WOCT2dRUy-8" value="Bronze Layer" style="rounded=0;whiteSpace=wrap;html=1;fillColor=#FFB366;" parent="1" vertex="1">
          <mxGeometry x="270" y="120" width="120" height="30" as="geometry" />
        </mxCell>
        <mxCell id="KzALQ_EzHr8WOCT2dRUy-10" value="Silver Layer" style="rounded=0;whiteSpace=wrap;html=1;fillColor=#B4B4B4;" parent="1" vertex="1">
          <mxGeometry x="400" y="120" width="120" height="30" as="geometry" />
        </mxCell>
        <mxCell id="KzALQ_EzHr8WOCT2dRUy-11" value="Gold Layer" style="rounded=0;whiteSpace=wrap;html=1;fillColor=#FDFF42;" parent="1" vertex="1">
          <mxGeometry x="530" y="120" width="120" height="30" as="geometry" />
        </mxCell>
        <mxCell id="KzALQ_EzHr8WOCT2dRUy-12" value="" style="rounded=0;whiteSpace=wrap;html=1;fillColor=none;strokeColor=#FF9933;" parent="1" vertex="1">
          <mxGeometry x="270" y="160" width="120" height="330" as="geometry" />
        </mxCell>
        <mxCell id="KzALQ_EzHr8WOCT2dRUy-13" value="" style="rounded=0;whiteSpace=wrap;html=1;fillColor=none;strokeColor=#CDCDCD;" parent="1" vertex="1">
          <mxGeometry x="400" y="160" width="120" height="330" as="geometry" />
        </mxCell>
        <mxCell id="KzALQ_EzHr8WOCT2dRUy-14" value="" style="rounded=0;whiteSpace=wrap;html=1;fillColor=none;strokeColor=#F7FF20;" parent="1" vertex="1">
          <mxGeometry x="530" y="160" width="120" height="330" as="geometry" />
        </mxCell>
        <mxCell id="KzALQ_EzHr8WOCT2dRUy-15" value="CRM" style="image;aspect=fixed;html=1;points=[];align=center;fontSize=12;image=img/lib/azure2/general/Folder_Blank.svg;" parent="1" vertex="1">
          <mxGeometry x="85.5" y="140" width="69" height="56.00000000000001" as="geometry" />
        </mxCell>
        <mxCell id="KzALQ_EzHr8WOCT2dRUy-16" value="" style="image;aspect=fixed;html=1;points=[];align=center;fontSize=12;image=img/lib/azure2/general/File.svg;" parent="1" vertex="1">
          <mxGeometry x="128.5" y="168" width="26" height="32.04" as="geometry" />
        </mxCell>
        <mxCell id="KzALQ_EzHr8WOCT2dRUy-17" value="ERP" style="image;aspect=fixed;html=1;points=[];align=center;fontSize=12;image=img/lib/azure2/general/Folder_Blank.svg;" parent="1" vertex="1">
          <mxGeometry x="85.5" y="270" width="69" height="56.00000000000001" as="geometry" />
        </mxCell>
        <mxCell id="KzALQ_EzHr8WOCT2dRUy-18" value="" style="image;aspect=fixed;html=1;points=[];align=center;fontSize=12;image=img/lib/azure2/general/File.svg;" parent="1" vertex="1">
          <mxGeometry x="128.5" y="298" width="26" height="32.04" as="geometry" />
        </mxCell>
        <mxCell id="KzALQ_EzHr8WOCT2dRUy-19" value="" style="endArrow=none;html=1;rounded=0;" parent="1" edge="1">
          <mxGeometry width="50" height="50" relative="1" as="geometry">
            <mxPoint x="50" y="390" as="sourcePoint" />
            <mxPoint x="190" y="390" as="targetPoint" />
          </mxGeometry>
        </mxCell>
        <mxCell id="KzALQ_EzHr8WOCT2dRUy-20" value="Object Type: CSV File&lt;br&gt;Interface:Files in Folder" style="text;strokeColor=none;align=center;fillColor=none;html=1;verticalAlign=middle;whiteSpace=wrap;rounded=0;fontSize=10;" parent="1" vertex="1">
          <mxGeometry x="45" y="400" width="150" height="30" as="geometry" />
        </mxCell>
        <mxCell id="KzALQ_EzHr8WOCT2dRUy-21" value="" style="html=1;verticalLabelPosition=bottom;align=center;labelBackgroundColor=#ffffff;verticalAlign=top;strokeWidth=2;strokeColor=#FFB366;shadow=0;dashed=0;shape=mxgraph.ios7.icons.data;fontColor=#000000;" parent="1" vertex="1">
          <mxGeometry x="311.2" y="180" width="40" height="50" as="geometry" />
        </mxCell>
        <mxCell id="KzALQ_EzHr8WOCT2dRUy-22" value="" style="html=1;verticalLabelPosition=bottom;align=center;labelBackgroundColor=#ffffff;verticalAlign=top;strokeWidth=2;strokeColor=#CDCDCD;shadow=0;dashed=0;shape=mxgraph.ios7.icons.data;fontColor=#000000;" parent="1" vertex="1">
          <mxGeometry x="441.2" y="180" width="40" height="50" as="geometry" />
        </mxCell>
        <mxCell id="KzALQ_EzHr8WOCT2dRUy-23" value="" style="html=1;verticalLabelPosition=bottom;align=center;labelBackgroundColor=#ffffff;verticalAlign=top;strokeWidth=2;strokeColor=#FDFF32;shadow=0;dashed=0;shape=mxgraph.ios7.icons.data;fontColor=#000000;" parent="1" vertex="1">
          <mxGeometry x="571.2" y="180" width="40" height="50" as="geometry" />
        </mxCell>
        <mxCell id="KzALQ_EzHr8WOCT2dRUy-24" value="" style="shape=flexArrow;endArrow=classic;html=1;rounded=0;exitX=0.99;exitY=0.484;exitDx=0;exitDy=0;entryX=-0.013;entryY=0.364;entryDx=0;entryDy=0;entryPerimeter=0;exitPerimeter=0;fillColor=#4F7AFF;" parent="1" edge="1">
          <mxGeometry width="50" height="50" relative="1" as="geometry">
            <mxPoint x="179.99999999999994" y="213.91999999999996" as="sourcePoint" />
            <mxPoint x="269.64000000000004" y="215.55999999999995" as="targetPoint" />
          </mxGeometry>
        </mxCell>
        <mxCell id="KzALQ_EzHr8WOCT2dRUy-25" value="" style="shape=flexArrow;endArrow=classic;html=1;rounded=0;entryX=-0.013;entryY=0.364;entryDx=0;entryDy=0;entryPerimeter=0;fillColor=#4F7AFF;" parent="1" edge="1">
          <mxGeometry width="50" height="50" relative="1" as="geometry">
            <mxPoint x="361.2" y="212" as="sourcePoint" />
            <mxPoint x="430.2" y="212" as="targetPoint" />
          </mxGeometry>
        </mxCell>
        <mxCell id="KzALQ_EzHr8WOCT2dRUy-27" value="" style="shape=flexArrow;endArrow=classic;html=1;rounded=0;entryX=-0.013;entryY=0.364;entryDx=0;entryDy=0;entryPerimeter=0;fillColor=#4F7AFF;" parent="1" edge="1">
          <mxGeometry width="50" height="50" relative="1" as="geometry">
            <mxPoint x="491.2" y="210" as="sourcePoint" />
            <mxPoint x="560.2" y="210" as="targetPoint" />
          </mxGeometry>
        </mxCell>
        <mxCell id="KzALQ_EzHr8WOCT2dRUy-28" value="Clean Up Data" style="text;strokeColor=none;align=center;fillColor=none;html=1;verticalAlign=middle;whiteSpace=wrap;rounded=0;" parent="1" vertex="1">
          <mxGeometry x="411.2" y="240" width="95" height="30" as="geometry" />
        </mxCell>
        <mxCell id="KzALQ_EzHr8WOCT2dRUy-29" value="Raw data" style="text;strokeColor=none;align=center;fillColor=none;html=1;verticalAlign=middle;whiteSpace=wrap;rounded=0;" parent="1" vertex="1">
          <mxGeometry x="283.7" y="240" width="95" height="30" as="geometry" />
        </mxCell>
        <mxCell id="KzALQ_EzHr8WOCT2dRUy-31" value="Business Ready&lt;br&gt;Data" style="text;strokeColor=none;align=center;fillColor=none;html=1;verticalAlign=middle;whiteSpace=wrap;rounded=0;" parent="1" vertex="1">
          <mxGeometry x="543.7" y="246" width="95" height="30" as="geometry" />
        </mxCell>
        <mxCell id="KzALQ_EzHr8WOCT2dRUy-32" value="&lt;div&gt;Object Type: Table&lt;/div&gt;&lt;div&gt;&lt;br&gt;&lt;/div&gt;&lt;div align=&quot;left&quot;&gt;Load:&lt;/div&gt;&lt;div align=&quot;left&quot;&gt;Batch Processing&lt;/div&gt;&lt;div align=&quot;left&quot;&gt;Full Load&lt;/div&gt;&lt;div align=&quot;left&quot;&gt;Truncate &amp;amp; Insert&lt;/div&gt;&lt;div align=&quot;left&quot;&gt;No Transformation&lt;/div&gt;&lt;div align=&quot;left&quot;&gt;Data Model: Data as-is&lt;/div&gt;&lt;div&gt;&lt;br&gt;&lt;/div&gt;" style="text;strokeColor=none;align=center;fillColor=none;html=1;verticalAlign=middle;whiteSpace=wrap;rounded=0;fontSize=10;" parent="1" vertex="1">
          <mxGeometry x="255" y="240" width="150" height="210" as="geometry" />
        </mxCell>
        <mxCell id="KzALQ_EzHr8WOCT2dRUy-33" value="&lt;div&gt;&lt;font style=&quot;font-size: 9px;&quot;&gt;Object Type: Table&lt;/font&gt;&lt;/div&gt;&lt;div&gt;&lt;font style=&quot;font-size: 9px;&quot;&gt;&lt;br&gt;&lt;/font&gt;&lt;/div&gt;&lt;div align=&quot;left&quot;&gt;&lt;font style=&quot;font-size: 9px;&quot;&gt;Load:&lt;/font&gt;&lt;/div&gt;&lt;ul&gt;&lt;li align=&quot;left&quot;&gt;&lt;font style=&quot;font-size: 9px;&quot;&gt;Batch Processing&lt;/font&gt;&lt;/li&gt;&lt;li align=&quot;left&quot;&gt;&lt;font style=&quot;font-size: 9px;&quot;&gt;Full Load&lt;/font&gt;&lt;/li&gt;&lt;li align=&quot;left&quot;&gt;&lt;font style=&quot;font-size: 9px;&quot;&gt;Truncate &amp;amp; Insert&lt;/font&gt;&lt;/li&gt;&lt;/ul&gt;&lt;div align=&quot;left&quot;&gt;&lt;font style=&quot;font-size: 9px;&quot;&gt;Transformation:&lt;/font&gt;&lt;/div&gt;&lt;ul&gt;&lt;li align=&quot;left&quot;&gt;&lt;font style=&quot;font-size: 9px;&quot;&gt;Data Cleansing&lt;/font&gt;&lt;/li&gt;&lt;li align=&quot;left&quot;&gt;&lt;font style=&quot;font-size: 9px;&quot;&gt;Data Standarization&lt;/font&gt;&lt;/li&gt;&lt;li align=&quot;left&quot;&gt;&lt;font style=&quot;font-size: 9px;&quot;&gt;Data Normalization&lt;/font&gt;&lt;/li&gt;&lt;li align=&quot;left&quot;&gt;&lt;font style=&quot;font-size: 9px;&quot;&gt;Derived Columns&lt;/font&gt;&lt;/li&gt;&lt;li align=&quot;left&quot;&gt;&lt;font style=&quot;font-size: 9px;&quot;&gt;Data Enrichemnt&lt;/font&gt;&lt;/li&gt;&lt;/ul&gt;&lt;div align=&quot;left&quot;&gt;&lt;font style=&quot;font-size: 9px;&quot;&gt;Data Model: Data as-is&lt;/font&gt;&lt;/div&gt;&lt;div&gt;&lt;font style=&quot;font-size: 9px;&quot;&gt;&lt;br&gt;&lt;/font&gt;&lt;/div&gt;" style="text;strokeColor=none;align=center;fillColor=none;html=1;verticalAlign=middle;whiteSpace=wrap;rounded=0;fontSize=10;" parent="1" vertex="1">
          <mxGeometry x="400" y="280" width="120" height="190" as="geometry" />
        </mxCell>
        <mxCell id="KzALQ_EzHr8WOCT2dRUy-37" value="&lt;div&gt;&lt;font style=&quot;font-size: 9px;&quot;&gt;Object Type: View&lt;/font&gt;&lt;/div&gt;&lt;div&gt;&lt;font style=&quot;font-size: 9px;&quot;&gt;&lt;br&gt;&lt;/font&gt;&lt;/div&gt;&lt;div&gt;&lt;font style=&quot;font-size: 9px;&quot;&gt;No LOAD&lt;/font&gt;&lt;/div&gt;&lt;div align=&quot;left&quot;&gt;&lt;font style=&quot;font-size: 9px;&quot;&gt;Transformation:&lt;/font&gt;&lt;/div&gt;&lt;ul&gt;&lt;li align=&quot;left&quot;&gt;&lt;font style=&quot;font-size: 9px;&quot;&gt;Data Integration&lt;/font&gt;&lt;/li&gt;&lt;li align=&quot;left&quot;&gt;&lt;font style=&quot;font-size: 9px;&quot;&gt;Aggregation&lt;/font&gt;&lt;/li&gt;&lt;li align=&quot;left&quot;&gt;&lt;font style=&quot;font-size: 9px;&quot;&gt;Business Logics&lt;/font&gt;&lt;/li&gt;&lt;/ul&gt;&lt;div align=&quot;left&quot;&gt;&lt;font style=&quot;font-size: 9px;&quot;&gt;Data Model:&amp;nbsp;&lt;/font&gt;&lt;/div&gt;&lt;div align=&quot;left&quot;&gt;&lt;ul&gt;&lt;li&gt;&lt;font style=&quot;font-size: 9px;&quot;&gt;Star Schema&lt;/font&gt;&lt;/li&gt;&lt;li&gt;&lt;font style=&quot;font-size: 9px;&quot;&gt;Flat Table&lt;/font&gt;&lt;/li&gt;&lt;li&gt;&lt;font style=&quot;font-size: 9px;&quot;&gt;Aggregated Table&lt;/font&gt;&lt;/li&gt;&lt;/ul&gt;&lt;/div&gt;&lt;div&gt;&lt;font style=&quot;font-size: 9px;&quot;&gt;&lt;br&gt;&lt;/font&gt;&lt;/div&gt;" style="text;strokeColor=none;align=center;fillColor=none;html=1;verticalAlign=middle;whiteSpace=wrap;rounded=0;fontSize=10;" parent="1" vertex="1">
          <mxGeometry x="531.2" y="298" width="120" height="190" as="geometry" />
        </mxCell>
        <mxCell id="KzALQ_EzHr8WOCT2dRUy-38" value="" style="shape=flexArrow;endArrow=classic;html=1;rounded=0;entryX=-0.013;entryY=0.364;entryDx=0;entryDy=0;entryPerimeter=0;fillColor=#4F7AFF;" parent="1" edge="1">
          <mxGeometry width="50" height="50" relative="1" as="geometry">
            <mxPoint x="660" y="210" as="sourcePoint" />
            <mxPoint x="729" y="210" as="targetPoint" />
          </mxGeometry>
        </mxCell>
        <mxCell id="KzALQ_EzHr8WOCT2dRUy-39" value="" style="image;aspect=fixed;html=1;points=[];align=center;fontSize=12;image=img/lib/azure2/power_platform/PowerBI.svg;" parent="1" vertex="1">
          <mxGeometry x="758" y="150" width="36" height="48" as="geometry" />
        </mxCell>
        <mxCell id="KzALQ_EzHr8WOCT2dRUy-40" value="" style="shadow=0;dashed=0;html=1;strokeColor=none;fillColor=#EF8F21;labelPosition=center;verticalLabelPosition=bottom;verticalAlign=top;align=center;outlineConnect=0;shape=mxgraph.veeam.reporting;" parent="1" vertex="1">
          <mxGeometry x="758" y="260" width="44.8" height="44.8" as="geometry" />
        </mxCell>
        <mxCell id="KzALQ_EzHr8WOCT2dRUy-41" value="" style="points=[];aspect=fixed;html=1;align=center;shadow=0;dashed=0;fillColor=#FF6A00;strokeColor=none;shape=mxgraph.alibaba_cloud.machine_learning;" parent="1" vertex="1">
          <mxGeometry x="758" y="350" width="49.8" height="50.099999999999994" as="geometry" />
        </mxCell>
        <mxCell id="KzALQ_EzHr8WOCT2dRUy-42" value="BI &amp;amp; Reporting" style="text;strokeColor=none;align=center;fillColor=none;html=1;verticalAlign=middle;whiteSpace=wrap;rounded=0;" parent="1" vertex="1">
          <mxGeometry x="728.5" y="196" width="95" height="30" as="geometry" />
        </mxCell>
        <mxCell id="KzALQ_EzHr8WOCT2dRUy-43" value="&lt;div&gt;Ad-hoc&lt;/div&gt;&lt;div&gt;SQL Queries&lt;/div&gt;" style="text;strokeColor=none;align=center;fillColor=none;html=1;verticalAlign=middle;whiteSpace=wrap;rounded=0;" parent="1" vertex="1">
          <mxGeometry x="728.5" y="310" width="95" height="30" as="geometry" />
        </mxCell>
        <mxCell id="KzALQ_EzHr8WOCT2dRUy-44" value="&lt;div&gt;Machine Learning&lt;/div&gt;" style="text;strokeColor=none;align=center;fillColor=none;html=1;verticalAlign=middle;whiteSpace=wrap;rounded=0;" parent="1" vertex="1">
          <mxGeometry x="720" y="400.1" width="110.4" height="30" as="geometry" />
        </mxCell>
      </root>
    </mxGraphModel>
  </diagram>
</mxfile>
